<?xml version="1.0" standalone="no"?>
<!DOCTYPE svg PUBLIC "-//W3C//DTD SVG 20010904//EN"
 "http://www.w3.org/TR/2001/REC-SVG-20010904/DTD/svg10.dtd">
<svg version="1.0" xmlns="http://www.w3.org/2000/svg"
 width="512.000000pt" height="512.000000pt" viewBox="0 0 512.000000 512.000000"
 preserveAspectRatio="xMidYMid meet">
<metadata>
Created by potrace 1.14, written by Peter Selinger 2001-2017
</metadata>
<g transform="translate(0.000000,512.000000) scale(0.100000,-0.100000)"
fill="#000000" stroke="none">
<path d="M3510 4686 c-3 -2 -21 -7 -40 -10 -55 -9 -208 -63 -273 -97 -170 -88
-337 -241 -471 -431 -26 -38 -51 -68 -55 -68 -4 0 -20 14 -37 31 -70 74 -210
129 -344 135 -220 9 -486 -149 -732 -437 -21 -24 -49 -57 -63 -74 -14 -16 -58
-77 -97 -135 -39 -58 -73 -107 -74 -109 -8 -10 -57 34 -81 72 -36 57 -117 132
-170 157 -219 103 -469 37 -684 -180 -151 -154 -271 -356 -319 -537 -18 -70
-36 -224 -35 -296 l2 -68 104 -99 c57 -55 109 -99 116 -100 14 0 304 98 312
106 3 3 6 29 7 57 1 74 14 147 25 147 5 0 9 -37 10 -82 1 -46 2 -103 4 -128 1
-25 6 -130 10 -235 4 -104 9 -224 10 -265 2 -41 6 -140 9 -220 3 -80 8 -201
11 -270 3 -69 8 -168 10 -220 2 -52 7 -162 10 -245 3 -82 8 -188 10 -235 2
-47 7 -164 10 -260 4 -108 11 -182 18 -193 7 -9 63 -59 125 -111 l112 -94 243
83 c133 45 307 105 387 132 l145 50 -1 99 c-1 87 -5 181 -19 419 -2 33 -7 115
-10 181 -6 123 -9 178 -19 359 -3 55 -8 145 -11 200 -3 55 -7 134 -10 175 -6
93 -14 244 -20 375 -3 55 -8 145 -11 200 -8 124 -7 144 11 224 38 161 127 358
237 523 58 86 153 198 168 198 4 0 8 -37 9 -82 1 -46 4 -112 6 -148 2 -36 7
-141 10 -235 3 -93 8 -208 10 -255 4 -80 9 -199 20 -475 3 -66 7 -172 10 -235
3 -63 7 -173 10 -245 3 -71 7 -177 10 -235 2 -58 7 -170 10 -250 7 -196 16
-364 18 -365 6 -2 213 -181 219 -189 10 -15 60 0 433 129 187 64 349 120 360
123 27 7 32 16 29 60 -9 158 -21 361 -29 522 -3 58 -7 137 -10 175 -2 39 -6
124 -9 190 -8 162 -22 405 -31 555 -3 41 -7 118 -10 170 -3 87 -9 182 -20 375
-2 39 -7 135 -10 215 -3 80 -13 182 -21 228 -11 64 -12 87 -3 105 21 39 121
160 183 220 61 58 172 147 184 147 4 0 7 -28 8 -63 1 -58 10 -320 19 -502 2
-44 6 -147 9 -230 4 -82 8 -202 11 -265 3 -63 7 -167 10 -230 18 -473 18 -475
41 -588 17 -85 55 -178 98 -242 41 -61 116 -140 132 -140 8 0 14 -4 14 -9 0
-5 14 -14 31 -21 16 -7 42 -29 57 -49 46 -61 111 -120 170 -154 31 -17 59 -32
62 -33 3 0 12 -3 20 -6 115 -42 262 -32 392 25 328 145 586 594 581 1006 l-1
74 -99 93 c-54 52 -107 96 -118 99 -11 2 -90 -19 -175 -49 l-155 -53 -7 -72
c-7 -81 -18 -105 -19 -45 0 21 -2 59 -4 84 -3 55 -15 267 -20 375 -2 44 -7
121 -10 170 -3 50 -8 135 -10 190 -3 55 -7 134 -10 175 -2 41 -7 122 -10 180
-18 344 -36 435 -109 562 -43 75 -68 104 -131 153 -27 20 -61 55 -75 78 -104
160 -299 262 -511 266 -52 1 -97 0 -99 -3z"/>
</g>
</svg>
